<svg height="496pt" viewBox="-16 0 496 496" width="496pt" xmlns="http://www.w3.org/2000/svg"><path d="m456.003906 488h-448l33.6875-145.992188c8.375-36.296874 40.703125-62.007812 77.949219-62.007812h224.722656c37.253907 0 69.574219 25.710938 77.949219 62.007812zm0 0" fill="#322f2b"/><path d="m304.363281 280h-184.722656c-37.253906 0-69.574219 25.710938-77.949219 62.007812l-33.6875 145.992188h408l-33.691406-145.992188c-8.375-36.296874-40.703125-62.007812-77.949219-62.007812zm0 0" fill="#413e39"/><path d="m104.003906 344h256v144h-256zm0 0" fill="#cfdfec"/><path d="m248.003906 424c0 8.835938-7.164062 16-16 16-8.839844 0-16-7.164062-16-16s7.160156-16 16-16c8.835938 0 16 7.164062 16 16zm0 0" fill="#a8fcfe"/><path d="m320.003906 136v56c0 48.601562-39.402344 88-88 88-48.601562 0-88-39.398438-88-88v-56" fill="#efd4ac"/><path d="m216.003906 278.480469c40.949219-7.535157 72-43.34375 72-86.480469v-56h-144v56c0 43.128906 31.046875 78.945312 72 86.480469zm0 0" fill="#fbe8d2"/><path d="m320.003906 184h-72l-16-16-16 16h-72v-48h176zm0 0" fill="#a4bdca"/><path d="m96.003906 104h272v32h-272zm0 0" fill="#322f2b"/><path d="m96.003906 120h272v16h-272zm0 0" fill="#413e39"/><path d="m128.003906 24v80h208v-80l-16-16h-176zm0 0" fill="#322f2b"/><path d="m208.003906 8 96 96h32v-16l-80-80zm0 0" fill="#413e39"/><path d="m232.003906 288c-52.9375 0-96-43.0625-96-96v-56h16v56c0 44.113281 35.886719 80 80 80 44.109375 0 80-35.886719 80-80v-56h16v56c0 52.9375-43.066406 96-96 96zm0 0"/><path d="m144.003906 128h176v16h-176zm0 0"/><path d="m320.003906 192h-72c-2.121094 0-4.160156-.839844-5.65625-2.34375l-10.34375-10.34375-10.347656 10.34375c-1.492188 1.503906-3.535156 2.34375-5.652344 2.34375h-72v-16h68.6875l13.65625-13.65625c3.125-3.128906 8.183594-3.128906 11.308594 0l13.65625 13.65625h68.691406zm0 0"/><path d="m264.003906 240h-16c-2.121094 0-4.160156-.839844-5.65625-2.34375l-10.34375-10.34375-10.347656 10.34375c-1.492188 1.503906-3.535156 2.34375-5.652344 2.34375h-16v-16h12.6875l13.65625-13.65625c3.125-3.128906 8.183594-3.128906 11.308594 0l13.65625 13.65625h12.691406zm0 0"/><path d="m368.003906 144h-272c-4.417968 0-8-3.574219-8-8v-32c0-4.425781 3.582032-8 8-8h272c4.414063 0 8 3.574219 8 8v32c0 4.425781-3.585937 8-8 8zm-264-16h256v-16h-256zm0 0"/><path d="m336.003906 112h-208c-4.417968 0-8-3.574219-8-8v-80c0-2.128906.839844-4.160156 2.34375-5.65625l16-16c1.496094-1.503906 3.535156-2.34375 5.65625-2.34375h176c2.117188 0 4.160156.839844 5.652344 2.34375l16 16c1.507812 1.496094 2.347656 3.527344 2.347656 5.65625v80c0 4.425781-3.585937 8-8 8zm-200-16h192v-68.6875l-11.3125-11.3125h-169.378906l-11.308594 11.3125zm0 0"/><path d="m250.34375 13.660156 11.3125-11.316406 80 80-11.3125 11.3125zm0 0"/><path d="m202.34375 13.660156 11.316406-11.3125 96 96-11.3125 11.3125zm0 0"/><path d="m456.003906 496h-448c-2.441406 0-4.746094-1.113281-6.265625-3.023438-1.511719-1.90625-2.082031-4.402343-1.535156-6.777343l33.6875-145.992188c9.28125-40.160156 44.535156-68.207031 85.75-68.207031h224.722656c41.214844 0 76.480469 28.046875 85.742188 68.207031l33.6875 145.992188c.546875 2.375-.015625 4.863281-1.535157 6.777343-1.511718 1.910157-3.816406 3.023438-6.253906 3.023438zm-437.945312-16h427.886718l-31.429687-136.191406c-7.578125-32.863282-36.433594-55.808594-70.152344-55.808594h-224.722656c-33.71875 0-62.574219 22.945312-70.152344 55.808594zm0 0"/><path d="m360.003906 496h-256c-4.417968 0-8-3.574219-8-8v-144c0-4.425781 3.582032-8 8-8h256c4.414063 0 8 3.574219 8 8v144c0 4.425781-3.585937 8-8 8zm-248-16h240v-128h-240zm0 0"/><path d="m232.003906 448c-13.234375 0-24-10.769531-24-24s10.765625-24 24-24c13.230469 0 24 10.769531 24 24s-10.769531 24-24 24zm0-32c-4.410156 0-8 3.585938-8 8s3.589844 8 8 8c4.40625 0 8-3.585938 8-8s-3.59375-8-8-8zm0 0"/><path d="m360.003906 448h88v16h-88zm0 0"/><path d="m16.003906 448h88v16h-88zm0 0"/></svg>