<svg height="496pt" viewBox="0 0 496 496" width="496pt" xmlns="http://www.w3.org/2000/svg"><path d="m8 200h480v288h-480zm0 0" fill="#cfdfec"/><g fill="#a4bdca"><path d="m8 104h480v96h-480zm0 0"/><path d="m40 360h272v64h-272zm0 0"/><path d="m40 264h224v64h-224zm0 0"/></g><path d="m312 136v-48c0-26.511719-21.488281-48-48-48s-48 21.488281-48 48v48h-32v-48c0-44.183594 35.816406-80 80-80s80 35.816406 80 80v48zm0 0" fill="#dbb284"/><path d="m312 136v-48c0-26.511719-21.488281-48-48-48s-48 21.488281-48 48v48h-16v-48c0-35.34375 28.65625-64 64-64s64 28.65625 64 64v48zm0 0" fill="#fbe8d2"/><path d="m296 136h192v112h-192zm0 0" fill="#e0a439"/><path d="m296 136h96v112h-96zm0 0" fill="#f6c046"/><path d="m416 192c0 13.253906-10.746094 24-24 24s-24-10.746094-24-24 10.746094-24 24-24 24 10.746094 24 24zm0 0" fill="#a4bdca"/><path d="m136 152c0 8.835938-7.164062 16-16 16s-16-7.164062-16-16 7.164062-16 16-16 16 7.164062 16 16zm0 0" fill="#e0a439"/><path d="m72 152c0 8.835938-7.164062 16-16 16s-16-7.164062-16-16 7.164062-16 16-16 16 7.164062 16 16zm0 0" fill="#db4841"/><path d="m488 496h-480c-4.414062 0-8-3.574219-8-8v-384c0-4.425781 3.585938-8 8-8h176v16h-168v368h464v-208h16v216c0 4.425781-3.585938 8-8 8zm0 0"/><path d="m56 176c-13.230469 0-24-10.769531-24-24s10.769531-24 24-24 24 10.769531 24 24-10.769531 24-24 24zm0-32c-4.40625 0-8 3.585938-8 8s3.59375 8 8 8 8-3.585938 8-8-3.59375-8-8-8zm0 0"/><path d="m120 176c-13.230469 0-24-10.769531-24-24s10.769531-24 24-24 24 10.769531 24 24-10.769531 24-24 24zm0-32c-4.40625 0-8 3.585938-8 8s3.59375 8 8 8 8-3.585938 8-8-3.59375-8-8-8zm0 0"/><path d="m8 192h288v16h-288zm0 0"/><path d="m64 288h16v16h-16zm0 0"/><path d="m96 288h16v16h-16zm0 0"/><path d="m128 288h16v16h-16zm0 0"/><path d="m160 288h16v16h-16zm0 0"/><path d="m192 288h16v16h-16zm0 0"/><path d="m264 336h-224c-4.414062 0-8-3.574219-8-8v-64c0-4.425781 3.585938-8 8-8h224c4.414062 0 8 3.574219 8 8v64c0 4.425781-3.585938 8-8 8zm-216-16h208v-48h-208zm0 0"/><path d="m64 384h16v16h-16zm0 0"/><path d="m96 384h16v16h-16zm0 0"/><path d="m128 384h16v16h-16zm0 0"/><path d="m160 384h16v16h-16zm0 0"/><path d="m192 384h16v16h-16zm0 0"/><path d="m312 432h-272c-4.414062 0-8-3.574219-8-8v-64c0-4.425781 3.585938-8 8-8h272c4.414062 0 8 3.574219 8 8v64c0 4.425781-3.585938 8-8 8zm-264-16h256v-48h-256zm0 0"/><path d="m224 384h16v16h-16zm0 0"/><path d="m256 384h16v16h-16zm0 0"/><path d="m488 256h-192c-4.414062 0-8-3.574219-8-8v-112c0-4.425781 3.585938-8 8-8h192c4.414062 0 8 3.574219 8 8v112c0 4.425781-3.585938 8-8 8zm-184-16h176v-96h-176zm0 0"/><path d="m216 144h-32c-4.414062 0-8-3.574219-8-8v-48c0-48.519531 39.480469-88 88-88s88 39.480469 88 88v48h-16v-48c0-39.703125-32.304688-72-72-72s-72 32.296875-72 72v40h16v-40c0-30.871094 25.121094-56 56-56s56 25.128906 56 56v48h-16v-48c0-22.054688-17.945312-40-40-40s-40 17.945312-40 40v48c0 4.425781-3.585938 8-8 8zm0 0"/><path d="m392 224c-17.648438 0-32-14.351562-32-32s14.351562-32 32-32 32 14.351562 32 32-14.351562 32-32 32zm0-48c-8.824219 0-16 7.175781-16 16s7.175781 16 16 16 16-7.175781 16-16-7.175781-16-16-16zm0 0"/><path d="m384 216h16v32h-16zm0 0"/><path d="m296 208h40v16h-40zm0 0"/><path d="m296 160h40v16h-40zm0 0"/><path d="m440 160h48v16h-48zm0 0"/><path d="m440 208h48v16h-48zm0 0"/><path d="m216 96h96v16h-96zm0 0"/><path d="m344 96h152v16h-152zm0 0"/></svg>